{"glyphs":{":":{"x_min":0,"x_max":175,"ha":175,"o":"m 59 276 q 59 287 66 295 q 74 303 85 303 q 96 303 104 295 q 111 287 111 276 q 111 265 104 258 q 96 250 85 250 q 74 250 66 258 q 59 265 59 276 z m 59 26 q 59 37 66 45 q 74 53 85 53 q 96 53 104 45 q 111 37 111 26 q 111 15 104 8 q 96 0 85 0 q 74 0 66 8 q 59 15 59 26 z"},"$":{"x_min":0,"x_max":567,"ha":567,"o":"m 367 546 l 367 643 q 349 656 320 666 q 291 675 252 677 l 252 384 q 288 373 323 360 q 358 348 386 327 q 415 306 433 272 q 451 238 452 186 q 453 143 438 108 q 422 73 394 48 q 367 23 330 8 q 294 -6 252 -8 l 252 -68 l 225 -68 l 225 -7 q 188 -6 158 2 q 129 11 106 22 q 83 34 66 47 q 50 60 41 70 l 41 173 l 68 173 l 68 83 q 94 57 132 40 q 171 22 225 20 l 225 362 q 194 371 166 382 q 137 393 115 410 q 93 427 79 452 q 65 478 63 517 q 61 549 70 581 q 78 613 98 640 q 118 666 150 684 q 181 701 225 703 l 225 764 l 252 764 l 252 704 q 268 703 286 700 q 305 698 324 693 q 342 688 360 679 q 378 670 394 657 l 394 546 z m 424 183 q 424 227 409 256 q 394 285 370 304 q 346 322 315 334 q 284 345 252 354 l 252 20 q 286 22 317 34 q 348 46 372 67 q 396 88 410 118 q 424 147 424 183 z m 90 527 q 90 495 101 473 q 112 451 130 436 q 149 420 174 410 q 198 400 225 392 l 225 675 q 191 673 166 660 q 141 647 124 627 q 107 607 98 581 q 90 555 90 527 z"},"?":{"x_min":0,"x_max":452,"ha":452,"o":"m 58 587 q 52 589 46 591 q 39 593 33 595 q 42 622 59 647 q 76 672 100 691 q 124 710 154 721 q 185 732 221 732 q 262 732 298 716 q 334 701 360 674 q 387 648 402 612 q 417 577 417 537 q 417 483 390 442 q 364 401 319 369 q 301 355 284 346 q 267 336 254 324 q 242 311 234 292 q 227 274 227 242 l 227 164 l 199 164 l 199 261 q 199 292 210 311 q 221 330 240 345 q 258 360 281 374 q 304 387 328 408 q 360 435 374 468 q 389 500 389 537 q 389 573 376 604 q 363 634 340 656 q 318 679 288 692 q 257 705 221 705 q 162 705 118 673 q 75 641 58 587 z m 213 20 q 203 20 195 28 q 187 35 187 46 q 187 58 195 66 q 203 73 213 73 q 223 73 231 66 q 239 58 239 46 q 239 35 231 28 q 223 20 213 20 z"},"<":{"x_min":0,"x_max":680,"ha":680,"o":"m 553 21 l 553 -15 q 443 48 334 112 q 225 175 115 238 q 225 301 334 364 q 443 428 553 491 l 553 455 q 458 401 364 346 q 270 292 175 238 q 270 184 364 130 q 458 75 553 21 z"},"'":{"x_min":0,"x_max":150,"ha":150,"o":"m 62 472 l 62 720 l 93 720 q 92 657 91 596 q 90 535 89 472 z"},"=":{"x_min":0,"x_max":708,"ha":708,"o":"m 606 170 l 606 142 l 100 142 l 100 170 z m 606 364 l 606 336 l 100 336 l 100 364 z"},"a":{"x_min":0,"x_max":535,"ha":535,"o":"m 35 188 q 35 228 50 264 q 65 299 92 326 q 118 352 154 368 q 189 383 230 383 q 260 383 287 374 q 314 366 336 351 q 359 336 376 316 q 392 296 401 274 q 401 299 402 324 q 403 349 405 375 l 426 375 l 426 27 l 500 27 l 500 0 l 401 0 l 401 47 l 401 102 q 392 80 376 60 q 360 40 338 25 q 315 10 288 2 q 261 -7 230 -7 q 189 -7 154 8 q 118 24 92 50 q 65 76 50 112 q 35 147 35 188 z m 63 188 q 63 153 76 122 q 89 92 112 70 q 134 47 164 34 q 195 21 230 21 q 265 21 296 34 q 327 47 350 70 q 373 92 386 122 q 399 153 399 188 q 399 223 386 254 q 373 284 350 307 q 327 330 296 343 q 265 356 230 356 q 195 356 164 343 q 134 330 112 307 q 89 284 76 254 q 63 223 63 188 z"},"L":{"x_min":0,"x_max":567,"ha":567,"o":"m 35 27 l 108 27 l 108 673 l 35 673 l 35 700 l 219 700 l 219 673 l 136 673 l 136 27 l 505 27 l 505 154 l 532 154 l 532 0 l 35 0 z"},"3":{"x_min":0,"x_max":515,"ha":515,"o":"m 173 354 l 371 622 l 130 622 l 130 559 l 103 559 l 103 650 l 424 650 l 236 401 q 279 400 316 384 q 354 369 382 342 q 411 315 428 278 q 444 241 444 198 q 444 155 428 118 q 411 80 383 52 q 355 24 318 8 q 280 -8 237 -8 q 192 -8 154 10 q 115 28 86 59 l 106 81 q 129 54 162 36 q 196 19 235 19 q 272 19 305 34 q 338 48 363 72 q 388 97 402 130 q 417 162 417 198 q 417 235 402 268 q 388 300 363 324 q 338 348 305 362 q 272 376 235 376 q 218 376 202 370 q 187 364 173 354 z"},";":{"x_min":0,"x_max":201,"ha":201,"o":"m 83 276 q 83 287 91 295 q 99 303 110 303 q 120 303 128 295 q 136 287 136 276 q 136 265 128 258 q 120 250 110 250 q 99 250 91 258 q 83 265 83 276 z m 119 86 q 97 34 76 -17 q 55 -68 33 -120 l 7 -120 q 27 -68 46 -17 q 64 34 84 86 z"},"J":{"x_min":0,"x_max":266,"ha":266,"o":"m 35 700 l 231 700 l 231 90 q 231 34 216 -8 q 200 -51 174 -80 q 147 -109 111 -125 q 75 -141 35 -142 l 35 -115 q 71 -113 102 -98 q 133 -84 156 -58 q 178 -31 190 7 q 203 45 203 93 l 203 673 l 35 673 z"},"V":{"x_min":0,"x_max":837,"ha":837,"o":"m 35 700 l 223 700 l 223 673 l 147 673 q 213 518 278 365 q 343 212 408 57 l 417 30 l 426 57 q 492 212 557 365 q 622 518 687 673 l 615 673 l 615 700 l 802 700 l 802 673 l 716 673 q 641 495 566 320 q 492 145 417 -32 q 342 145 268 320 q 193 495 118 673 l 35 673 z"},"\"":{"x_min":0,"x_max":301,"ha":301,"o":"m 196 472 l 196 720 l 227 720 q 226 657 225 596 q 224 535 223 472 z m 63 472 l 63 720 l 94 720 q 93 657 92 596 q 91 535 90 472 z"},"7":{"x_min":0,"x_max":469,"ha":469,"o":"m 417 650 l 125 0 l 92 0 l 373 622 l 41 622 l 41 559 l 14 559 l 14 650 z"},"S":{"x_min":0,"x_max":478,"ha":478,"o":"m 41 70 l 41 173 l 68 173 l 68 83 q 96 56 138 38 q 179 19 237 19 q 273 19 307 30 q 341 42 367 63 q 393 84 408 114 q 424 145 424 183 q 424 228 409 258 q 394 287 369 306 q 344 324 312 336 q 281 347 248 356 q 214 366 182 376 q 150 387 124 404 q 98 421 82 448 q 65 475 63 517 q 61 550 70 584 q 80 617 102 644 q 123 671 157 688 q 191 704 239 704 q 256 704 276 702 q 295 700 316 695 q 336 690 356 681 q 376 672 394 657 l 394 546 l 367 546 l 367 643 q 347 657 315 667 q 283 677 238 677 q 201 677 173 664 q 145 652 126 631 q 108 610 99 583 q 90 556 90 527 q 90 489 106 464 q 121 440 146 424 q 171 409 203 399 q 235 389 269 379 q 303 369 336 356 q 368 343 394 322 q 419 301 435 268 q 451 235 452 186 q 453 142 436 106 q 420 70 391 44 q 362 19 323 6 q 284 -8 241 -8 q 201 -8 168 0 q 136 8 111 20 q 86 32 68 46 q 51 59 41 70 z"},"}":{"x_min":0,"x_max":320,"ha":320,"o":"m 290 316 l 290 281 q 260 279 244 260 q 228 241 220 215 q 213 189 212 162 q 211 135 211 117 l 211 -30 q 211 -76 203 -100 q 195 -125 182 -136 q 170 -146 154 -147 q 137 -148 119 -148 l 76 -148 l 76 -121 l 131 -121 q 162 -121 172 -96 q 183 -72 183 -11 l 183 165 q 183 198 190 221 q 197 244 207 260 q 217 275 228 284 q 240 293 249 299 q 236 306 224 316 q 212 326 203 344 q 194 362 188 390 q 183 419 183 463 l 183 608 q 183 670 172 694 q 162 719 131 719 l 76 719 l 76 746 l 119 746 q 137 746 154 745 q 170 744 182 734 q 195 723 203 698 q 211 674 211 628 l 211 480 q 211 462 212 434 q 213 407 220 382 q 228 356 244 336 q 260 317 290 316 z"},"Z":{"x_min":0,"x_max":629,"ha":629,"o":"m 594 188 l 594 0 l 35 0 l 35 27 l 529 673 l 52 673 l 52 735 l 81 735 l 81 700 l 565 700 l 565 673 l 71 27 l 567 27 l 567 188 z"},"x":{"x_min":0,"x_max":496,"ha":496,"o":"m 35 375 l 219 375 l 219 348 l 144 348 l 247 206 l 349 348 l 282 348 l 282 375 l 461 375 l 461 348 l 383 348 l 264 183 q 293 144 322 106 q 350 67 379 27 l 461 27 l 461 0 l 277 0 l 277 27 l 345 27 q 319 63 294 98 q 269 132 243 167 q 217 132 193 97 q 169 62 143 27 l 214 27 l 214 0 l 35 0 l 35 27 l 108 27 q 138 68 167 108 q 196 148 225 190 q 196 230 167 269 q 138 308 109 348 l 35 348 z"},")":{"x_min":0,"x_max":400,"ha":400,"o":"m 286 291 q 286 216 272 148 q 258 80 235 22 q 212 -36 182 -84 q 152 -131 121 -164 q 116 -158 112 -152 q 108 -147 104 -141 q 133 -108 160 -63 q 188 -18 210 37 q 232 92 245 156 q 258 220 258 291 q 258 362 245 426 q 232 490 210 545 q 188 600 160 645 q 133 690 104 723 q 108 729 112 734 q 116 740 121 746 q 152 713 182 666 q 212 618 235 560 q 258 502 272 434 q 286 366 286 291 z"},"&":{"x_min":0,"x_max":700,"ha":700,"o":"m 469 375 l 601 375 l 601 348 l 497 348 l 497 270 q 497 249 498 226 q 498 204 496 182 q 495 160 490 138 q 484 116 473 96 l 535 -4 l 513 -19 l 458 70 q 431 35 390 14 q 350 -7 301 -7 q 260 -7 224 8 q 189 23 162 50 q 136 76 121 111 q 106 146 106 187 q 106 223 118 256 q 131 288 152 314 q 174 339 204 356 q 233 373 268 379 l 197 496 q 179 526 172 558 q 164 590 169 621 q 174 652 192 679 q 210 706 243 726 q 271 743 300 746 q 330 750 358 745 q 386 740 410 729 q 435 718 454 706 l 443 682 q 422 694 400 704 q 377 715 354 720 q 331 724 308 721 q 284 718 261 704 q 232 686 216 662 q 200 639 196 612 q 192 586 198 559 q 205 532 221 506 l 450 133 q 469 166 469 205 z m 134 187 q 134 152 147 122 q 160 91 182 68 q 205 46 236 33 q 266 20 301 20 q 346 20 383 40 q 420 61 442 96 l 284 353 q 252 350 224 336 q 197 322 177 300 q 157 278 146 249 q 134 220 134 187 z"},"_":{"x_min":0,"x_max":600,"ha":600,"o":"m 500 0 l 100 0 l 100 27 l 500 27 z"},"v":{"x_min":0,"x_max":589,"ha":589,"o":"m 35 375 l 208 375 l 208 348 l 139 348 q 179 269 219 190 q 259 110 297 30 q 332 105 372 186 q 413 267 455 348 l 397 348 l 397 375 l 554 375 l 554 348 l 484 348 q 437 254 390 162 q 344 71 297 -23 q 249 71 202 162 q 156 254 109 348 l 35 348 z"},"O":{"x_min":0,"x_max":786,"ha":786,"o":"m 35 349 q 35 423 63 488 q 91 554 140 602 q 188 651 253 680 q 318 708 392 708 q 466 708 532 680 q 597 651 646 602 q 694 554 722 488 q 751 423 751 349 q 751 275 722 210 q 694 145 646 96 q 597 48 532 20 q 466 -8 392 -8 q 318 -8 253 20 q 188 48 140 96 q 91 145 63 210 q 35 275 35 349 z m 63 348 q 63 280 89 220 q 115 160 159 116 q 203 71 262 45 q 322 19 390 19 q 458 19 518 45 q 579 71 624 116 q 670 161 696 221 q 723 281 723 349 q 723 417 697 478 q 671 538 626 583 q 581 628 520 654 q 460 681 392 681 q 324 681 264 654 q 204 628 160 583 q 115 538 89 478 q 63 417 63 348 z"},"(":{"x_min":0,"x_max":400,"ha":400,"o":"m 141 292 q 141 367 155 435 q 169 503 192 561 q 215 619 244 666 q 274 714 306 747 q 310 741 314 736 q 318 730 323 724 q 294 691 266 646 q 239 601 217 546 q 195 491 182 427 q 169 363 169 292 q 169 221 182 157 q 195 93 217 38 q 239 -17 266 -62 q 294 -107 323 -140 q 318 -146 314 -152 q 310 -157 306 -163 q 274 -130 244 -82 q 215 -35 192 23 q 169 81 155 149 q 141 217 141 292 z"},"C":{"x_min":0,"x_max":610,"ha":610,"o":"m 548 546 l 548 641 q 477 681 392 681 q 324 681 264 654 q 204 628 160 583 q 115 538 89 478 q 63 417 63 348 q 63 280 89 220 q 115 160 159 116 q 203 71 262 45 q 322 19 390 19 q 436 19 478 31 q 520 43 558 65 l 574 42 q 534 19 488 6 q 443 -8 392 -8 q 318 -8 253 20 q 188 48 140 96 q 91 145 63 210 q 35 275 35 349 q 35 423 63 488 q 91 554 140 602 q 188 651 253 680 q 318 708 392 708 q 443 708 488 695 q 534 682 575 658 l 575 546 z"},"W":{"x_min":0,"x_max":1212,"ha":1212,"o":"m 35 700 l 223 700 l 223 673 l 147 673 q 212 518 276 364 q 341 211 408 57 l 417 30 q 454 135 500 236 q 546 338 589 441 q 565 499 540 556 q 516 614 491 673 l 409 673 l 409 700 l 597 700 l 597 673 l 520 673 q 585 518 649 364 q 713 211 781 57 l 790 30 l 799 57 q 864 212 929 365 q 994 518 1059 673 l 989 673 l 989 700 l 1177 700 l 1177 673 l 1088 673 q 1013 495 939 320 q 865 145 790 -32 l 613 385 l 603 410 q 560 299 512 188 q 464 78 417 -32 q 342 145 268 320 q 193 495 118 673 l 35 673 z"},"A":{"x_min":0,"x_max":820,"ha":820,"o":"m 35 27 l 111 27 q 186 204 260 379 q 335 554 410 732 q 485 554 560 379 q 634 204 709 27 l 785 27 l 785 0 l 601 0 l 601 27 l 680 27 q 650 97 620 167 q 591 237 561 308 l 259 308 q 229 237 200 167 q 170 97 140 27 l 219 27 l 219 0 l 35 0 z m 419 643 l 410 670 q 409 668 408 664 q 407 660 405 655 l 401 643 q 374 573 339 493 q 304 413 271 335 l 549 335 z"},"f":{"x_min":0,"x_max":292,"ha":292,"o":"m 35 27 l 96 27 l 96 348 l 35 348 l 35 375 l 96 375 l 96 518 q 96 573 112 616 q 127 659 154 688 q 180 717 216 732 q 251 748 292 750 l 292 723 q 258 723 228 708 q 197 694 174 668 q 151 642 138 604 q 124 567 124 520 l 124 375 l 251 375 l 251 348 l 124 348 l 124 27 l 219 27 l 219 0 l 35 0 z"},"Q":{"x_min":0,"x_max":808,"ha":808,"o":"m 63 348 q 63 280 89 220 q 115 160 159 116 q 203 71 262 45 q 322 19 390 19 q 458 19 518 45 q 579 71 624 116 q 670 161 696 221 q 723 281 723 349 q 723 417 696 478 q 670 538 625 583 q 580 628 520 654 q 460 681 392 681 q 324 681 264 654 q 204 628 160 583 q 115 538 89 478 q 63 417 63 348 z m 35 349 q 35 423 63 488 q 91 554 140 602 q 188 651 253 680 q 318 708 392 708 q 466 708 532 680 q 597 651 646 602 q 694 554 722 488 q 751 423 751 349 q 751 295 736 245 q 720 195 692 154 q 663 112 624 80 q 585 47 538 27 l 773 27 l 773 0 l 466 0 q 428 -8 392 -8 q 318 -8 253 20 q 188 48 140 96 q 91 145 63 210 q 35 275 35 349 z"},"w":{"x_min":0,"x_max":854,"ha":854,"o":"m 665 375 l 819 375 l 819 348 l 753 348 q 706 254 660 162 q 614 71 568 -23 l 432 250 l 296 -23 q 249 71 203 162 q 157 254 110 348 l 35 348 l 35 375 l 205 375 l 205 348 l 139 348 q 178 268 218 188 q 257 109 296 30 q 324 89 352 147 q 381 205 410 263 q 401 284 392 305 q 384 326 376 348 l 307 348 l 307 375 l 480 375 l 480 348 l 411 348 q 450 268 490 188 q 529 109 568 30 q 606 111 645 190 q 684 268 724 348 l 665 348 z"},"-":{"x_min":0,"x_max":300,"ha":300,"o":"m 53 177 l 53 204 l 237 204 l 237 177 z"},"E":{"x_min":0,"x_max":571,"ha":571,"o":"m 35 27 l 112 27 l 112 673 l 35 673 l 35 700 l 522 700 l 522 546 l 495 546 l 495 673 l 140 673 l 140 366 l 483 366 l 483 339 l 140 339 l 140 27 l 509 27 l 509 154 l 536 154 l 536 0 l 35 0 z"},"s":{"x_min":0,"x_max":318,"ha":318,"o":"m 79 97 l 79 42 q 100 27 124 23 q 149 19 172 19 q 184 19 199 24 q 214 29 228 39 q 241 49 250 64 q 259 79 259 100 q 259 128 245 144 q 231 159 210 168 q 189 178 164 184 q 139 191 118 201 q 96 211 82 228 q 67 246 67 278 q 67 303 76 322 q 86 341 101 354 q 116 367 134 374 q 153 380 171 380 q 174 380 186 380 q 198 379 214 376 q 229 373 245 366 q 261 360 272 348 l 272 278 l 246 278 l 246 334 q 238 341 226 345 q 215 349 204 350 q 192 352 183 352 q 174 353 171 353 q 159 353 146 349 q 132 345 120 337 q 109 329 102 315 q 95 301 95 282 q 95 256 109 242 q 123 228 144 219 q 166 210 191 203 q 216 196 238 184 q 259 173 273 154 q 287 136 287 103 q 287 85 280 66 q 274 46 260 30 q 245 13 222 2 q 200 -8 169 -8 q 161 -8 146 -7 q 132 -6 116 -2 q 99 2 82 8 q 65 15 53 27 l 53 97 z"},">":{"x_min":0,"x_max":650,"ha":650,"o":"m 115 -15 l 115 21 q 210 75 304 130 q 398 184 493 238 q 398 292 304 346 q 210 401 115 455 l 115 491 q 225 428 334 364 q 443 301 553 238 q 443 175 334 112 q 225 48 115 -15 z"},"l":{"x_min":0,"x_max":254,"ha":254,"o":"m 35 27 l 108 27 l 108 723 l 36 723 l 36 750 l 136 750 l 136 27 l 219 27 l 219 0 l 35 0 z"},"8":{"x_min":0,"x_max":510,"ha":510,"o":"m 134 508 q 134 485 144 466 q 153 446 169 432 q 185 418 207 410 q 229 402 254 402 q 279 402 300 410 q 322 418 338 432 q 354 446 363 466 q 372 485 372 508 q 372 533 363 555 q 354 577 338 594 q 322 611 300 621 q 279 631 254 631 q 229 631 207 621 q 185 611 169 594 q 153 577 144 555 q 134 533 134 508 z m 78 198 q 78 162 92 130 q 105 97 128 72 q 152 48 184 34 q 216 19 253 19 q 290 19 324 34 q 357 48 382 72 q 406 97 420 130 q 435 162 435 198 q 435 234 420 266 q 406 298 382 322 q 357 346 324 360 q 291 373 254 373 q 217 373 185 360 q 153 346 129 322 q 105 298 92 266 q 78 234 78 198 z m 50 198 q 50 232 60 262 q 71 293 90 318 q 108 343 134 362 q 160 380 191 389 q 153 404 129 438 q 105 471 105 514 q 105 544 116 570 q 128 596 148 616 q 169 635 196 646 q 222 658 252 658 q 283 658 310 646 q 336 635 356 615 q 376 595 388 568 q 399 541 399 511 q 399 469 376 437 q 354 405 317 389 q 348 380 374 362 q 401 344 420 319 q 440 294 451 263 q 462 232 462 198 q 462 155 446 118 q 429 80 401 52 q 373 24 335 8 q 297 -8 255 -8 q 213 -8 176 8 q 138 24 110 52 q 82 80 66 118 q 50 155 50 198 z"},"\\":{"x_min":0,"x_max":333,"ha":333,"o":"m 44 736 q 114 546 183 358 q 252 171 322 -19 l 292 -19 q 222 171 153 358 q 84 546 14 736 z"},"e":{"x_min":0,"x_max":438,"ha":438,"o":"m 230 356 q 189 356 155 338 q 121 320 98 291 q 76 262 67 224 q 58 186 68 147 q 143 177 216 206 q 290 236 365 266 q 346 306 310 331 q 275 356 230 356 z m 401 251 q 320 218 239 186 q 158 154 77 121 q 96 76 136 48 q 177 21 230 21 q 264 21 293 33 q 322 45 345 66 q 349 61 353 56 q 357 51 362 46 q 336 21 302 7 q 269 -7 230 -7 q 189 -7 154 8 q 118 24 92 50 q 66 76 50 112 q 35 147 35 188 q 35 228 50 264 q 66 300 92 326 q 118 352 154 368 q 189 383 230 383 q 290 383 336 346 q 381 309 401 251 z"},"b":{"x_min":0,"x_max":535,"ha":535,"o":"m 35 27 l 109 27 l 109 723 l 37 723 l 37 750 l 136 750 l 136 329 q 136 315 136 302 q 135 288 134 274 q 143 296 160 316 q 176 336 198 351 q 220 366 248 374 q 275 383 305 383 q 346 383 382 368 q 417 352 444 326 q 470 300 485 264 q 500 228 500 188 q 500 147 485 112 q 470 76 444 50 q 417 24 382 8 q 346 -7 305 -7 q 274 -7 247 2 q 220 10 198 25 q 175 40 159 60 q 143 80 134 102 l 134 47 l 134 0 l 35 0 z m 472 188 q 472 223 459 254 q 446 284 424 307 q 401 330 370 343 q 340 356 305 356 q 270 356 239 343 q 208 330 185 307 q 162 284 149 254 q 136 223 136 188 q 136 153 149 122 q 162 92 185 70 q 208 47 239 34 q 270 21 305 21 q 340 21 370 34 q 401 47 424 70 q 446 92 459 122 q 472 153 472 188 z"},"%":{"x_min":0,"x_max":726,"ha":726,"o":"m 436 112 q 436 77 461 52 q 486 27 522 27 q 558 27 583 52 q 608 77 608 112 q 608 147 583 172 q 558 197 522 197 q 486 197 461 172 q 436 147 436 112 z m 522 0 q 499 0 478 9 q 457 18 442 33 q 426 48 417 68 q 408 89 408 113 q 408 136 417 156 q 426 177 442 192 q 457 207 478 216 q 499 224 522 224 q 545 224 566 216 q 586 207 602 192 q 618 177 627 156 q 636 136 636 113 q 636 89 627 68 q 618 48 602 33 q 586 18 566 9 q 545 0 522 0 z m 132 388 q 132 353 157 328 q 182 304 218 304 q 254 304 279 328 q 304 353 304 388 q 304 423 279 448 q 254 473 218 473 q 182 473 157 448 q 132 423 132 388 z m 218 276 q 195 276 174 285 q 153 294 138 309 q 122 324 113 344 q 104 365 104 389 q 104 412 113 432 q 122 453 138 468 q 153 483 174 492 q 195 501 218 501 q 241 501 262 492 q 282 483 298 468 q 314 453 323 432 q 332 412 332 389 q 332 365 323 344 q 314 324 298 309 q 282 294 262 285 q 241 276 218 276 z m 201 0 q 276 126 350 250 q 424 374 499 500 l 530 500 q 455 374 381 250 q 307 126 232 0 z"},"m":{"x_min":0,"x_max":814,"ha":814,"o":"m 595 27 l 674 27 l 674 268 q 672 303 648 328 q 625 353 583 355 q 551 355 522 344 q 494 334 472 316 q 450 298 436 272 q 422 247 421 217 l 421 27 l 499 27 l 499 0 l 315 0 l 315 27 l 394 27 l 394 268 q 392 303 368 328 q 345 353 303 355 q 271 355 242 344 q 212 334 190 315 q 167 296 154 270 q 141 243 141 212 l 141 27 l 219 27 l 219 0 l 35 0 l 35 27 l 113 27 l 113 348 l 40 348 l 40 375 l 134 375 l 136 331 q 136 316 137 304 q 138 292 138 277 q 158 325 202 354 q 246 382 303 382 q 353 382 384 354 q 415 327 420 282 q 442 327 485 354 q 528 382 583 382 q 637 382 668 351 q 700 320 702 270 l 702 27 l 779 27 l 779 0 l 595 0 z"},"#":{"x_min":0,"x_max":571,"ha":571,"o":"m 190 400 q 185 361 181 322 q 177 284 172 245 l 328 245 q 333 284 337 322 q 341 361 346 400 z m 299 0 q 306 55 312 109 q 318 163 324 218 l 168 218 q 162 163 156 109 q 150 55 143 0 l 115 0 q 122 55 128 109 q 134 163 140 218 l 28 218 l 31 245 l 144 245 q 149 284 153 322 q 157 361 162 400 l 51 400 l 54 427 l 166 427 q 172 481 178 535 q 185 589 192 643 l 220 643 q 213 589 206 535 q 200 481 194 427 l 350 427 q 356 481 362 535 q 369 589 376 643 l 404 643 q 397 589 390 535 q 384 481 378 427 l 507 427 l 504 400 l 374 400 q 369 361 365 322 q 361 284 356 245 l 484 245 q 484 238 483 232 q 482 225 481 218 l 352 218 q 346 163 340 109 q 334 55 327 0 z"},",":{"x_min":0,"x_max":200,"ha":200,"o":"m 134 86 q 112 34 91 -17 q 70 -68 48 -120 l 22 -120 q 42 -68 60 -17 q 79 34 99 86 z"},"n":{"x_min":0,"x_max":534,"ha":534,"o":"m 315 27 l 394 27 l 394 268 q 392 303 368 328 q 345 353 303 355 q 271 355 242 344 q 212 334 190 315 q 167 296 154 270 q 141 243 141 212 l 141 27 l 219 27 l 219 0 l 35 0 l 35 27 l 113 27 l 113 348 l 40 348 l 40 375 l 134 375 l 136 331 q 136 316 137 304 q 138 292 138 277 q 158 325 202 354 q 246 382 303 382 q 357 382 388 351 q 419 320 421 270 l 421 27 l 499 27 l 499 0 l 315 0 z"},"h":{"x_min":0,"x_max":534,"ha":534,"o":"m 315 27 l 394 27 l 394 268 q 392 303 368 328 q 345 353 303 355 q 271 355 242 344 q 212 334 190 315 q 167 296 154 270 q 141 243 141 212 l 141 27 l 219 27 l 219 0 l 35 0 l 35 27 l 113 27 l 113 723 l 40 723 l 40 750 l 141 750 l 141 322 l 138 277 q 159 325 202 354 q 246 382 303 382 q 357 382 388 351 q 419 320 421 270 l 421 27 l 499 27 l 499 0 l 315 0 z"},"z":{"x_min":0,"x_max":430,"ha":430,"o":"m 395 80 l 395 0 l 35 0 l 35 27 q 115 108 188 188 q 260 267 339 348 l 47 348 l 47 410 l 73 410 l 73 375 l 377 375 l 377 348 q 297 267 224 188 q 152 108 73 27 l 369 27 l 369 80 z"},"B":{"x_min":0,"x_max":521,"ha":521,"o":"m 35 27 l 101 27 l 101 673 l 35 673 l 35 700 l 253 700 q 299 700 337 690 q 375 680 402 659 q 430 638 445 604 q 460 571 460 525 q 460 463 429 416 q 398 369 334 352 q 364 346 392 332 q 419 318 440 296 q 461 274 474 245 q 486 216 486 180 q 486 135 468 102 q 450 68 420 46 q 390 23 352 12 q 313 0 271 0 l 35 0 z m 129 338 l 129 27 l 269 27 q 308 27 342 36 q 376 46 402 65 q 428 84 443 113 q 458 142 458 180 q 458 221 440 251 q 423 281 394 300 q 365 320 328 329 q 291 338 251 338 z m 129 673 l 129 365 l 268 365 q 305 365 336 376 q 366 388 388 409 q 409 430 420 460 q 432 489 432 525 q 432 565 420 593 q 407 621 385 639 q 363 657 332 665 q 301 673 264 673 z"},"K":{"x_min":0,"x_max":686,"ha":686,"o":"m 467 27 l 531 27 q 456 121 382 215 q 309 309 235 404 l 139 314 q 139 242 140 170 q 140 99 140 27 l 223 27 l 223 0 l 35 0 l 35 27 l 112 27 l 112 673 l 35 673 l 35 700 l 219 700 l 219 673 l 140 673 l 140 373 q 140 365 140 358 q 139 352 138 344 l 156 364 l 479 673 l 421 673 l 421 700 l 604 700 l 604 673 l 517 673 l 254 422 q 333 322 410 224 q 488 126 566 27 l 651 27 l 651 0 l 467 0 z"},"R":{"x_min":0,"x_max":570,"ha":570,"o":"m 35 27 l 101 27 l 101 673 l 35 673 l 35 700 l 246 700 q 276 700 312 690 q 348 680 380 658 q 411 637 432 602 q 453 568 453 520 q 453 449 414 402 q 376 355 302 340 l 449 27 l 535 27 l 535 0 l 433 0 l 273 338 q 250 335 227 335 l 129 335 l 129 27 l 223 27 l 223 0 l 35 0 z m 129 362 l 238 362 q 293 362 329 377 q 365 392 386 416 q 408 439 416 466 q 425 494 425 520 q 425 550 411 578 q 397 606 372 627 q 347 648 313 660 q 279 673 239 673 l 129 673 z"},"T":{"x_min":0,"x_max":623,"ha":623,"o":"m 217 27 l 297 27 l 297 673 l 62 673 l 62 546 l 35 546 l 35 700 l 588 700 l 588 546 l 561 546 l 561 673 l 325 673 l 325 27 l 405 27 l 405 0 l 217 0 z"},"P":{"x_min":0,"x_max":488,"ha":488,"o":"m 35 27 l 101 27 l 101 673 l 35 673 l 35 700 l 246 700 q 276 700 312 690 q 348 680 380 658 q 411 637 432 602 q 453 568 453 520 q 453 435 398 385 q 343 335 240 335 l 129 335 l 129 27 l 223 27 l 223 0 l 35 0 z m 129 362 l 238 362 q 293 362 329 377 q 365 392 386 416 q 408 439 416 466 q 425 494 425 520 q 425 550 411 578 q 397 606 372 627 q 347 648 313 660 q 279 673 239 673 l 129 673 z"},"|":{"x_min":0,"x_max":229,"ha":229,"o":"m 97 -232 l 97 700 l 125 700 l 125 -232 z"},"t":{"x_min":0,"x_max":307,"ha":307,"o":"m 123 619 l 151 619 l 151 375 l 272 375 l 272 348 l 151 348 l 151 27 l 235 27 l 235 0 l 123 0 l 123 348 l 35 348 l 35 375 l 123 375 z"},"M":{"x_min":0,"x_max":964,"ha":964,"o":"m 823 700 l 925 700 l 925 673 l 846 673 l 846 27 l 929 27 l 929 0 l 741 0 l 741 27 l 818 27 l 818 610 q 818 611 818 617 q 818 623 818 630 q 819 638 820 644 q 820 651 820 652 q 818 650 814 646 q 811 641 806 634 q 793 616 770 587 q 748 558 720 522 q 693 485 661 444 q 629 402 598 360 q 566 319 536 280 q 505 240 480 207 q 422 283 376 344 q 329 404 290 455 q 251 506 218 550 q 184 594 151 637 l 140 652 q 141 641 142 631 q 142 621 142 610 l 142 27 l 223 27 l 223 0 l 35 0 l 35 27 l 114 27 l 114 673 l 35 673 l 35 700 l 137 700 q 143 693 162 667 q 182 641 210 604 q 239 567 274 522 q 309 476 346 428 q 382 381 416 336 q 451 291 480 254 q 566 365 652 477 q 737 589 823 700 z"},"g":{"x_min":0,"x_max":536,"ha":536,"o":"m 405 375 l 501 375 l 501 348 l 426 348 l 426 -26 q 426 -79 412 -120 q 397 -161 372 -190 q 346 -218 312 -234 q 278 -249 239 -250 q 197 -248 154 -234 q 112 -221 86 -190 l 107 -171 q 130 -198 166 -210 q 203 -222 238 -222 q 271 -222 300 -208 q 330 -194 352 -168 q 373 -143 386 -107 q 399 -71 399 -27 l 399 47 q 399 61 400 74 q 400 87 401 101 q 383 56 337 25 q 291 -6 230 -6 q 189 -6 154 9 q 118 24 92 50 q 65 77 50 112 q 35 147 35 188 q 35 228 50 264 q 65 299 92 326 q 118 352 154 368 q 189 383 230 383 q 260 383 287 374 q 314 366 336 351 q 359 336 376 316 q 392 296 401 274 q 401 299 402 324 q 403 349 405 375 z m 63 188 q 63 153 76 122 q 89 92 112 70 q 134 47 164 34 q 195 21 230 21 q 265 21 296 34 q 327 47 350 70 q 373 92 386 122 q 399 153 399 188 q 399 223 386 254 q 373 284 350 307 q 327 330 296 343 q 265 356 230 356 q 195 356 164 343 q 134 330 112 307 q 89 284 76 254 q 63 223 63 188 z"},"j":{"x_min":0,"x_max":175,"ha":175,"o":"m 35 375 l 140 375 l 140 -6 q 140 -64 124 -108 q 108 -151 79 -180 l 58 -161 q 83 -135 98 -96 q 112 -58 112 -8 l 112 348 l 35 348 z m 101 504 q 101 515 108 523 q 116 531 127 531 q 138 531 146 523 q 153 515 153 504 q 153 493 146 486 q 138 478 127 478 q 116 478 108 486 q 101 493 101 504 z"},"i":{"x_min":0,"x_max":254,"ha":254,"o":"m 35 27 l 115 27 l 115 348 l 35 348 l 35 375 l 142 375 l 142 27 l 219 27 l 219 0 l 35 0 z m 102 504 q 102 515 110 523 q 118 531 129 531 q 140 531 148 523 q 155 515 155 504 q 155 493 148 486 q 140 478 129 478 q 118 478 110 486 q 102 493 102 504 z"},"y":{"x_min":0,"x_max":595,"ha":595,"o":"m 92 -223 l 175 -223 q 202 -168 230 -112 q 258 -57 285 -3 q 240 85 196 172 q 153 260 109 348 l 35 348 l 35 375 l 208 375 l 208 348 l 141 348 q 181 267 222 187 q 262 107 300 26 q 337 104 378 186 q 419 267 460 348 l 403 348 l 403 375 l 560 375 l 560 348 l 491 348 q 348 62 207 -223 l 276 -223 l 276 -250 l 92 -250 z"},"@":{"x_min":0,"x_max":990,"ha":990,"o":"m 322 188 q 322 153 335 122 q 348 92 370 70 q 393 47 424 34 q 454 21 489 21 q 524 21 555 34 q 586 47 608 70 q 631 92 644 122 q 657 153 657 188 q 657 223 644 254 q 631 284 608 307 q 586 330 555 343 q 524 356 489 356 q 454 356 424 343 q 393 330 370 307 q 348 284 335 254 q 322 223 322 188 z m 890 188 q 888 130 874 94 q 860 57 840 36 q 819 15 794 8 q 768 0 743 0 l 659 0 l 659 47 q 659 61 660 74 q 660 88 660 102 q 651 79 635 60 q 619 40 596 26 q 574 11 547 2 q 520 -7 489 -7 q 448 -7 412 8 q 377 24 350 50 q 324 76 309 112 q 294 147 294 188 q 294 228 309 264 q 324 299 350 326 q 377 352 412 368 q 448 383 489 383 q 519 383 546 374 q 572 366 594 351 q 617 336 634 316 q 650 296 659 274 q 659 299 660 324 q 662 349 663 375 l 685 375 l 685 27 l 748 27 q 799 27 830 65 q 860 103 862 188 q 862 266 832 334 q 803 402 752 453 q 702 504 634 534 q 566 563 489 563 q 412 563 344 534 q 276 504 226 453 q 175 402 146 334 q 116 266 116 188 q 116 111 146 43 q 175 -25 226 -76 q 276 -126 344 -156 q 412 -185 489 -185 q 550 -185 605 -166 q 660 -147 706 -115 q 711 -121 714 -126 q 718 -131 723 -136 q 673 -172 614 -192 q 555 -212 489 -212 q 406 -212 333 -180 q 260 -149 206 -94 q 151 -40 120 33 q 88 106 88 189 q 88 272 120 345 q 151 418 206 472 q 260 527 333 558 q 406 590 489 590 q 572 590 645 558 q 718 527 772 472 q 827 418 858 345 q 890 272 890 188 z"},".":{"x_min":0,"x_max":163,"ha":163,"o":"m 59 26 q 59 37 67 45 q 75 53 86 53 q 97 53 104 45 q 112 37 112 26 q 112 15 104 8 q 97 0 86 0 q 75 0 67 8 q 59 15 59 26 z"},"p":{"x_min":0,"x_max":535,"ha":535,"o":"m 43 -223 l 109 -223 l 109 348 l 35 348 l 35 375 l 131 375 q 131 349 132 323 q 133 297 134 271 q 143 293 160 314 q 176 334 198 349 q 221 364 248 373 q 275 382 305 382 q 346 382 382 366 q 417 351 444 325 q 470 299 485 263 q 500 227 500 187 q 500 146 485 110 q 470 75 444 49 q 417 23 382 8 q 346 -8 305 -8 q 244 -8 198 24 q 153 55 135 100 q 135 88 136 76 q 137 64 137 53 l 137 -223 l 226 -223 l 226 -250 l 43 -250 z m 472 187 q 472 222 459 252 q 446 283 424 306 q 401 328 370 341 q 340 354 305 354 q 270 354 239 341 q 208 328 186 306 q 163 283 150 252 q 137 222 137 187 q 137 152 150 122 q 163 91 186 68 q 208 45 239 32 q 270 19 305 19 q 340 19 370 32 q 401 45 424 68 q 446 91 459 122 q 472 152 472 187 z"},"X":{"x_min":0,"x_max":707,"ha":707,"o":"m 35 700 l 223 700 l 223 673 l 164 673 q 210 603 256 534 q 301 464 346 395 l 355 379 l 364 395 l 542 673 l 484 673 l 484 700 l 672 700 l 672 673 l 575 673 q 524 592 474 514 q 423 435 372 355 q 426 272 479 190 q 532 109 586 27 l 672 27 l 672 0 l 484 0 l 484 27 l 551 27 l 389 275 q 379 289 370 306 q 362 322 351 336 l 342 320 q 295 245 248 172 q 201 100 154 27 l 223 27 l 223 0 l 35 0 l 35 27 l 121 27 l 334 359 l 131 673 l 35 673 z"},"*":{"x_min":0,"x_max":335,"ha":335,"o":"m 196 575 q 221 561 246 546 q 272 531 298 517 q 294 510 290 504 q 286 497 282 490 q 256 505 232 520 q 207 535 181 550 q 180 521 180 492 q 180 463 179 434 l 152 434 l 152 550 q 126 535 102 520 q 77 506 52 492 q 48 499 44 506 q 40 512 36 519 q 62 533 87 548 q 112 562 137 576 q 112 591 87 606 q 62 621 36 636 q 40 642 44 648 q 47 654 50 660 l 152 600 l 152 720 l 183 720 q 182 690 182 660 q 182 630 181 600 q 207 614 233 629 q 259 644 285 659 q 289 653 292 647 q 296 641 299 635 q 273 620 248 605 q 222 590 196 575 z"},"Y":{"x_min":0,"x_max":732,"ha":732,"o":"m 274 27 l 350 27 l 350 264 q 288 367 228 468 q 167 570 105 673 l 35 673 l 35 700 l 223 700 l 223 673 l 139 673 q 193 582 247 494 q 301 405 354 314 l 366 287 l 367 287 l 378 314 l 592 673 l 510 673 l 510 700 l 697 700 l 697 673 l 626 673 q 565 570 504 468 q 443 366 382 263 l 382 27 l 461 27 l 461 0 l 274 0 z"},"c":{"x_min":0,"x_max":389,"ha":389,"o":"m 354 36 q 328 16 296 4 q 265 -7 230 -7 q 189 -7 154 8 q 118 24 92 50 q 66 76 50 112 q 35 147 35 188 q 35 228 50 264 q 66 300 92 326 q 118 352 154 368 q 189 383 230 383 q 266 383 298 372 q 329 360 354 340 l 354 247 l 328 247 l 328 324 q 307 339 282 348 q 258 356 230 356 q 195 356 164 343 q 134 330 112 307 q 89 284 76 254 q 63 223 63 188 q 63 153 76 122 q 89 92 112 70 q 134 47 164 34 q 195 21 230 21 q 261 21 288 30 q 314 40 336 57 z"},"!":{"x_min":0,"x_max":201,"ha":201,"o":"m 100 29 q 90 29 82 36 q 74 44 74 55 q 74 67 82 74 q 90 82 100 82 q 110 82 118 74 q 126 67 126 55 q 126 44 118 36 q 110 29 100 29 z m 86 750 l 114 750 l 114 166 l 86 166 z"},"/":{"x_min":0,"x_max":334,"ha":334,"o":"m 17 -19 q 87 171 156 358 q 225 546 295 736 l 323 736 q 253 546 184 358 q 115 171 45 -19 z"},"[":{"x_min":0,"x_max":338,"ha":338,"o":"m 83 -149 l 83 746 l 252 746 l 252 719 l 112 719 l 112 -122 l 252 -122 l 252 -149 z"},"6":{"x_min":0,"x_max":520,"ha":520,"o":"m 77 196 q 77 159 91 127 q 105 95 129 71 q 153 47 186 33 q 218 19 255 19 q 292 19 325 33 q 358 47 382 71 q 407 95 421 127 q 435 159 435 196 q 435 233 421 265 q 407 297 382 321 q 358 345 325 359 q 292 373 255 373 q 218 373 186 359 q 153 345 129 321 q 105 297 91 265 q 77 233 77 196 z m 50 194 q 50 266 81 328 q 112 391 160 446 q 208 500 266 546 q 325 593 381 634 q 386 628 390 622 q 395 616 400 611 q 340 571 294 532 q 247 494 213 459 q 179 424 156 392 q 134 361 122 336 q 145 365 180 383 q 214 401 256 401 q 299 401 336 385 q 374 369 402 341 q 430 313 446 276 q 463 238 463 196 q 463 154 446 117 q 430 80 402 52 q 374 24 336 8 q 299 -8 256 -8 q 214 -8 176 8 q 139 24 111 51 q 83 78 66 115 q 50 152 50 194 z"},"r":{"x_min":0,"x_max":335,"ha":335,"o":"m 35 27 l 113 27 l 113 348 l 40 348 l 40 375 l 134 375 l 136 331 q 136 316 137 304 q 138 292 138 277 q 160 326 204 354 q 249 381 300 382 l 299 355 q 267 354 238 343 q 209 332 188 313 q 166 294 154 268 q 141 242 141 212 l 141 27 l 219 27 l 219 0 l 35 0 z"},"2":{"x_min":0,"x_max":500,"ha":500,"o":"m 122 27 l 431 27 l 431 136 l 458 136 l 458 0 l 53 0 q 117 62 177 122 q 237 182 284 239 q 330 296 358 349 q 386 402 386 449 q 386 501 371 536 q 356 571 333 592 q 310 613 284 622 q 257 631 233 631 q 186 631 156 614 q 125 597 108 572 q 90 548 84 519 q 77 490 77 466 q 77 397 117 354 l 99 338 q 76 361 62 394 q 49 426 49 466 q 49 506 61 541 q 73 576 96 602 q 120 628 154 643 q 188 658 233 658 q 273 658 306 643 q 340 628 364 602 q 388 575 401 539 q 414 503 414 461 q 414 405 387 350 q 360 294 318 240 q 275 186 223 132 q 171 79 122 27 z"},"{":{"x_min":0,"x_max":282,"ha":282,"o":"m 30 281 l 30 316 q 54 317 70 330 q 85 344 94 364 q 103 384 106 408 q 109 431 109 451 l 109 628 q 109 674 117 698 q 125 722 138 732 q 150 743 166 744 q 183 746 201 746 l 244 746 l 244 719 l 189 719 q 158 719 148 694 q 137 670 137 608 l 137 463 q 137 419 132 390 q 126 362 117 344 q 108 326 96 316 q 84 306 71 299 q 84 292 96 282 q 108 271 117 252 q 126 234 132 206 q 137 178 137 135 l 137 -11 q 137 -72 148 -96 q 158 -121 189 -121 l 244 -121 l 244 -148 l 201 -148 q 181 -148 164 -146 q 147 -145 135 -132 q 123 -118 116 -88 q 109 -58 109 -1 l 109 146 q 109 166 106 190 q 103 213 94 233 q 85 253 70 266 q 54 280 30 281 z"},"9":{"x_min":0,"x_max":525,"ha":525,"o":"m 435 429 q 435 466 421 498 q 407 530 383 554 q 359 578 326 592 q 294 606 257 606 q 220 606 187 592 q 154 578 130 554 q 105 530 91 498 q 77 466 77 429 q 77 392 91 360 q 105 328 130 304 q 154 280 187 266 q 220 252 257 252 q 294 252 326 266 q 359 280 383 304 q 407 328 421 360 q 435 392 435 429 z m 463 429 q 463 357 432 295 q 401 233 352 179 q 304 125 245 78 q 186 32 131 -8 q 122 3 113 15 q 233 95 300 167 q 366 239 391 290 q 368 260 333 242 q 298 225 256 225 q 213 225 176 241 q 138 257 110 285 q 82 313 66 350 q 49 387 49 429 q 49 471 66 508 q 82 546 110 574 q 138 602 176 618 q 213 634 256 634 q 299 634 336 618 q 374 602 402 574 q 430 546 446 508 q 463 471 463 429 z"}," ":{"x_min":0,"x_max":300,"ha":300,"o":""},"I":{"x_min":0,"x_max":258,"ha":258,"o":"m 35 27 l 112 27 l 112 673 l 35 673 l 35 700 l 223 700 l 223 673 l 140 673 l 140 27 l 223 27 l 223 0 l 35 0 z"},"H":{"x_min":0,"x_max":727,"ha":727,"o":"m 505 700 l 692 700 l 692 673 l 615 673 l 615 27 l 692 27 l 692 0 l 505 0 l 505 27 l 587 27 l 587 339 l 140 339 l 140 27 l 223 27 l 223 0 l 35 0 l 35 27 l 112 27 l 112 673 l 35 673 l 35 700 l 223 700 l 223 673 l 140 673 l 140 366 l 587 366 l 587 673 l 505 673 z"},"4":{"x_min":0,"x_max":510,"ha":510,"o":"m 298 27 l 375 27 l 375 183 l 37 183 l 403 658 l 403 210 l 500 210 l 500 183 l 403 183 l 403 27 l 486 27 l 486 0 l 298 0 z m 375 576 l 95 210 l 375 210 z"},"~":{"x_min":0,"x_max":489,"ha":489,"o":"m 266 494 q 250 511 238 517 q 227 523 213 523 q 205 523 195 521 q 185 519 175 513 q 165 507 158 496 q 151 486 149 470 q 144 471 140 471 q 135 471 130 472 q 131 491 139 504 q 147 518 159 526 q 171 535 186 539 q 200 543 214 543 q 234 543 251 533 q 268 523 284 506 q 300 489 312 483 q 324 477 338 477 q 345 477 356 479 q 366 481 376 487 q 385 493 392 504 q 399 514 401 530 q 406 529 411 529 q 416 529 421 528 q 420 509 412 496 q 404 482 392 474 q 380 465 366 461 q 351 457 337 457 q 317 457 300 467 q 282 477 266 494 z"},"D":{"x_min":0,"x_max":632,"ha":632,"o":"m 35 27 l 103 27 l 103 673 l 35 673 l 35 700 l 245 700 q 317 700 381 676 q 445 651 493 606 q 541 560 569 495 q 597 430 597 350 q 597 291 576 229 q 556 167 510 116 q 464 65 390 32 q 317 0 211 0 l 35 0 z m 131 673 l 131 27 l 223 27 q 314 27 380 56 q 445 85 488 131 q 530 177 550 234 q 570 292 570 350 q 570 424 544 484 q 519 544 475 586 q 431 628 372 650 q 314 673 248 673 z"},"^":{"x_min":0,"x_max":470,"ha":470,"o":"m 232 660 q 262 615 292 570 q 322 524 352 479 l 327 479 q 303 514 280 548 q 256 582 232 617 q 208 582 184 548 q 161 514 137 479 l 112 479 q 142 524 172 570 q 202 615 232 660 z"},"0":{"x_min":0,"x_max":616,"ha":616,"o":"m 36 327 q 36 380 52 438 q 68 497 101 546 q 134 595 185 626 q 236 658 308 658 q 378 658 428 626 q 479 593 512 544 q 544 495 558 436 q 573 378 573 324 q 573 253 550 192 q 528 132 491 88 q 454 43 404 18 q 355 -7 301 -7 q 247 -7 198 19 q 150 45 114 90 q 78 134 57 195 q 36 256 36 327 z m 65 328 q 65 259 84 202 q 104 146 138 106 q 171 65 214 42 q 257 20 303 20 q 349 20 392 42 q 436 63 470 103 q 503 143 524 199 q 545 255 545 323 q 545 389 528 445 q 511 501 480 542 q 448 584 404 608 q 360 631 307 631 q 254 631 210 608 q 165 586 133 546 q 101 505 83 450 q 65 394 65 328 z"},"F":{"x_min":0,"x_max":557,"ha":557,"o":"m 35 27 l 112 27 l 112 673 l 35 673 l 35 700 l 522 700 l 522 546 l 495 546 l 495 673 l 140 673 l 140 366 l 483 366 l 483 339 l 140 339 l 140 27 l 223 27 l 223 0 l 35 0 z"},"`":{"x_min":0,"x_max":200,"ha":200,"o":"m 8 612 q 31 579 53 546 q 75 512 98 479 l 74 479 q 50 512 26 546 q 2 579 -21 612 z"},"k":{"x_min":0,"x_max":495,"ha":495,"o":"m 281 27 l 341 27 q 307 73 272 119 q 238 165 205 212 l 136 147 l 136 27 l 219 27 l 219 0 l 35 0 l 35 27 l 108 27 l 108 723 l 36 723 l 36 750 l 136 750 l 136 183 l 312 348 l 244 348 l 244 375 l 423 375 l 423 348 l 348 348 q 314 316 288 290 q 261 263 226 231 q 263 180 300 129 q 337 78 375 27 l 460 27 l 460 0 l 281 0 z"},"u":{"x_min":0,"x_max":528,"ha":528,"o":"m 35 375 l 139 375 l 139 107 q 141 72 164 47 q 188 22 230 20 q 262 20 292 30 q 321 41 344 60 q 366 79 379 106 q 392 132 392 163 l 392 348 l 315 348 l 315 375 l 419 375 l 419 25 l 493 25 l 493 0 l 398 0 l 396 53 l 395 98 q 375 50 330 22 q 286 -7 230 -7 q 176 -7 144 24 q 113 55 111 105 l 111 348 l 35 348 z"},"]":{"x_min":0,"x_max":342,"ha":342,"o":"m 251 746 l 251 -149 l 82 -149 l 82 -122 l 222 -122 l 222 719 l 82 719 l 82 746 z"},"U":{"x_min":0,"x_max":685,"ha":685,"o":"m 35 700 l 223 700 l 223 673 l 140 673 l 140 229 q 140 178 155 139 q 170 100 197 74 q 224 47 261 33 q 298 19 342 19 q 386 19 423 33 q 460 47 487 74 q 514 100 530 139 q 545 178 545 229 l 545 673 l 462 673 l 462 700 l 650 700 l 650 673 l 573 673 l 573 226 q 573 169 556 125 q 538 81 507 52 q 476 22 434 7 q 391 -8 342 -8 q 292 -8 250 7 q 208 22 178 52 q 147 81 130 125 q 112 169 112 226 l 112 673 l 35 673 z"},"o":{"x_min":0,"x_max":463,"ha":463,"o":"m 36 188 q 36 228 51 264 q 66 300 92 326 q 119 353 154 368 q 190 384 231 384 q 272 384 308 368 q 344 353 370 326 q 397 300 412 264 q 428 228 428 188 q 428 147 412 112 q 397 76 370 50 q 344 24 308 8 q 272 -7 231 -7 q 190 -7 154 8 q 119 24 92 50 q 66 76 51 112 q 36 147 36 188 z m 64 188 q 64 153 77 122 q 90 92 112 70 q 135 47 166 34 q 196 21 231 21 q 265 21 296 34 q 327 47 350 70 q 372 92 386 122 q 399 153 399 188 q 399 223 386 254 q 372 284 350 307 q 327 330 296 343 q 265 356 231 356 q 196 356 166 343 q 135 330 112 307 q 90 284 77 254 q 64 223 64 188 z"},"N":{"x_min":0,"x_max":843,"ha":843,"o":"m 35 27 l 114 27 l 114 673 l 35 673 l 35 700 l 141 700 l 681 58 l 700 32 l 697 64 l 697 673 l 620 673 l 620 700 l 808 700 l 808 673 l 725 673 l 725 -32 l 158 638 l 140 660 l 142 632 l 142 27 l 223 27 l 223 0 l 35 0 z"},"+":{"x_min":0,"x_max":543,"ha":543,"o":"m 252 51 l 252 218 l 86 218 l 86 245 l 252 245 l 252 411 l 280 411 l 280 245 l 446 245 l 446 218 l 280 218 l 280 51 z"},"G":{"x_min":0,"x_max":609,"ha":609,"o":"m 574 298 l 574 40 q 534 17 488 4 q 443 -10 392 -10 q 318 -10 253 18 q 188 46 140 94 q 91 143 63 208 q 35 273 35 347 q 35 421 63 486 q 91 552 140 600 q 188 649 253 678 q 318 706 392 706 q 443 706 488 693 q 534 680 575 656 l 559 633 q 484 679 392 679 q 324 679 264 652 q 204 626 160 581 q 115 536 89 476 q 63 415 63 346 q 63 278 89 218 q 115 158 159 114 q 203 69 262 43 q 322 17 390 17 q 474 17 546 57 l 546 271 l 388 271 l 388 298 z"},"q":{"x_min":0,"x_max":536,"ha":536,"o":"m 312 -223 l 398 -223 l 398 53 q 398 64 399 76 q 400 88 400 100 q 382 55 336 24 q 291 -8 230 -8 q 189 -8 154 8 q 118 23 92 49 q 65 75 50 110 q 35 146 35 187 q 35 227 50 263 q 65 299 92 325 q 118 351 154 366 q 189 382 230 382 q 260 382 288 373 q 315 364 338 349 q 360 334 376 314 q 392 293 401 271 q 401 297 403 323 q 405 349 405 375 l 501 375 l 501 348 l 426 348 l 426 -223 l 496 -223 l 496 -250 l 312 -250 z m 63 187 q 63 152 76 122 q 89 91 112 68 q 134 45 164 32 q 195 19 230 19 q 265 19 296 32 q 327 45 350 68 q 373 91 386 122 q 399 152 399 187 q 399 222 386 252 q 373 283 350 306 q 327 328 296 341 q 265 354 230 354 q 195 354 164 341 q 134 328 112 306 q 89 283 76 252 q 63 222 63 187 z"},"d":{"x_min":0,"x_max":535,"ha":535,"o":"m 401 47 l 401 102 q 392 80 376 60 q 360 40 338 25 q 315 10 288 2 q 261 -7 230 -7 q 189 -7 154 8 q 118 24 92 50 q 65 76 50 112 q 35 147 35 188 q 35 228 50 264 q 65 300 92 326 q 118 352 154 368 q 189 383 230 383 q 260 383 287 374 q 314 366 336 351 q 359 336 376 316 q 392 296 401 274 q 400 300 400 325 q 399 350 399 376 l 399 723 l 327 723 l 327 750 l 426 750 l 426 27 l 500 27 l 500 0 l 401 0 z m 63 188 q 63 153 76 122 q 89 92 112 70 q 134 47 164 34 q 195 21 230 21 q 265 21 296 34 q 327 47 350 70 q 373 92 386 122 q 399 153 399 188 q 399 223 386 254 q 373 284 350 307 q 327 330 296 343 q 265 356 230 356 q 195 356 164 343 q 134 330 112 307 q 89 284 76 254 q 63 223 63 188 z"},"1":{"x_min":0,"x_max":257,"ha":257,"o":"m 58 27 l 138 27 l 138 623 l 34 623 l 34 650 l 166 650 l 166 27 l 246 27 l 246 0 l 58 0 z"},"5":{"x_min":0,"x_max":543,"ha":543,"o":"m 430 650 l 430 559 l 403 559 l 403 623 l 171 623 l 171 382 q 191 390 212 396 q 232 401 255 401 q 297 401 335 385 q 373 369 401 342 q 429 314 446 277 q 462 240 462 198 q 462 155 446 118 q 429 80 401 52 q 373 24 335 8 q 297 -8 255 -8 q 213 -8 177 7 q 141 22 113 49 l 134 68 q 157 45 188 32 q 218 19 253 19 q 290 19 324 34 q 357 48 382 72 q 406 97 420 130 q 435 162 435 198 q 435 234 420 266 q 406 298 382 322 q 357 346 324 360 q 290 373 253 373 q 218 373 189 362 q 160 350 143 331 l 143 650 z"}}}
